<svg xmlns="http://www.w3.org/2000/svg" viewBox="0 0 614.52 205.45"><defs><style>.cls-1{isolation:isolate;}.cls-2{fill:#777778;}.cls-3{fill:#eb5c2c;}.cls-3,.cls-4,.cls-5,.cls-6,.cls-7,.cls-8,.cls-9{mix-blend-mode:overlay;}.cls-4{fill:#91b623;}.cls-5{fill:#e84339;}.cls-6{fill:#2075bb;}.cls-7{fill:#29abe3;}.cls-8{fill:#f59c14;}.cls-9{fill:#9e2064;}.cls-10{fill:#fff;}.cls-11{font-size:66.41px;}.cls-11,.cls-15{fill:#1d1d1b;font-family:Calibri-Light, Calibri;font-weight:300;}.cls-12{letter-spacing:-0.01em;}.cls-13{letter-spacing:-0.02em;}.cls-14{letter-spacing:-0.01em;}.cls-15{font-size:23.88px;}.cls-16{letter-spacing:0.01em;}.cls-17{letter-spacing:-0.01em;}.cls-18{letter-spacing:-0.02em;}.cls-19{letter-spacing:0em;}.cls-20{letter-spacing:0em;}.cls-21{letter-spacing:-0.03em;}</style></defs><g class="cls-1"><g id="Capa_1" data-name="Capa 1"><path class="cls-2" d="M186.26,49.46a68.26,68.26,0,0,0-66.11-37.87,68.25,68.25,0,0,0-81,21A68.27,68.27,0,0,0,7.66,103.49,68.21,68.21,0,0,0,53.58,181,68.27,68.27,0,0,0,127.19,193a68.27,68.27,0,0,0,70.54-69.37,68.23,68.23,0,0,0-11.47-74.2Z"/><path class="cls-3" d="M8.11,76a68.21,68.21,0,1,1,51.76,81.41A68.21,68.21,0,0,1,8.11,76Z"/><path class="cls-4" d="M56.07,89.84a68.21,68.21,0,1,1,51.75,81.41A68.2,68.2,0,0,1,56.07,89.84Z"/><path class="cls-4" d="M58.51,64.81a68.21,68.21,0,1,1,51.75,81.41A68.21,68.21,0,0,1,58.51,64.81Z"/><path class="cls-5" d="M33,115.81a68.22,68.22,0,1,1,51.76,81.4A68.21,68.21,0,0,1,33,115.81Z"/><path class="cls-6" d="M62.94,110a68.21,68.21,0,1,1,51.76,81.41A68.21,68.21,0,0,1,62.94,110Z"/><path class="cls-7" d="M69.12,80.44a68.22,68.22,0,1,1,51.76,81.41A68.21,68.21,0,0,1,69.12,80.44Z"/><path class="cls-8" d="M26.56,59.41a68.21,68.21,0,1,1,51.76,81.41A68.22,68.22,0,0,1,26.56,59.41Z"/><path class="cls-9" d="M8.11,101.28a68.22,68.22,0,1,1,51.76,81.41A68.21,68.21,0,0,1,8.11,101.28Z"/><path class="cls-10" d="M121.19,32.69a71.78,71.78,0,1,0,54.47,85.66A71.77,71.77,0,0,0,121.19,32.69Zm47.28,84.06a64.43,64.43,0,0,1-62.82,50.42h0a64.69,64.69,0,0,1-14.05-1.55A64.41,64.41,0,0,1,42.72,88.75a64.41,64.41,0,0,1,125.75,28Z"/><path class="cls-10" d="M118.45,45a59.17,59.17,0,1,0,44.9,70.61A59.32,59.32,0,0,0,118.45,45Z"/><text class="cls-11" transform="translate(207.9 120.61)">Ce<tspan class="cls-12" x="68.35" y="0">n</tspan><tspan x="102.2" y="0">t</tspan><tspan class="cls-13" x="124.03" y="0">r</tspan><tspan x="145.62" y="0">al Medi</tspan><tspan class="cls-14" x="344.62" y="0">c</tspan><tspan x="372.21" y="0">a</tspan></text><text class="cls-15" transform="translate(227.16 163.65)">Se<tspan class="cls-16" x="22.61" y="0">r</tspan><tspan class="cls-17" x="31.07" y="0">v</tspan><tspan x="41.29" y="0">cios especiali</tspan><tspan class="cls-18" x="166.25" y="0">z</tspan><tspan class="cls-19" x="175.18" y="0">ados de E</tspan><tspan class="cls-20" x="267.19" y="0">n</tspan><tspan class="cls-21" x="279.48" y="0">f</tspan><tspan x="285.92" y="0">ermeria</tspan></text></g></g></svg>